<?xml version="1.0" encoding="UTF-8"?>
<svg version="1.1" viewBox="0 0 2048 1152" width="1280" height="720" xmlns="http://www.w3.org/2000/svg">
<path transform="translate(0)" d="m0 0h2048v1152h-2048z" fill="#FEFEFE"/>
<path transform="translate(804,418)" d="m0 0h270l95 1 1 1-1 17-4 13-7 13-11 12-8 7-14 7-13 4-14 2h-64l-11 23-10 19-10 21-3 5 2-1 63-5 21-1-2 4-14 19-14 18-14 19-16 21-30 40-11 14-12 16-11 13-7 9-11 13-9 11-9 10-8 10h-2l4-19 13-55 9-37 6-25-24 1-43 3h-6l2-6 18-35 15-30 10-19 29-58 9-17 17-34-19-1h-126l-3-1 5 10 9 10 10 7 12 4 6 1 64 1-6 12-5 9h-58l-15-4-16-8-12-10-10-13-5-11-3-11-1-8v-10z" fill="#030909"/>
<path transform="translate(1e3 440)" d="m0 0 145 1-5 10-10 11-12 7-10 3-8 1-79 1-12 25-20 40-11 23-10 20-2 3 4-1 72-5-2 5-10 13-9 12-14 19-14 18-8 11-14 18-9 12-4 6-1-3 16-64 2-9v-4l-21 2-38 3h-6l2-6 15-29 22-44 12-23 10-20 10-19 18-36z" fill="#FEFEFE"/>
</svg>
