<?xml version="1.0" encoding="UTF-8"?>
<svg version="1.1" viewBox="0 0 952 896" width="238" height="224" xmlns="http://www.w3.org/2000/svg">
<path transform="translate(0)" d="m0 0h952v896h-952z" fill="#FEFFFE"/>
<path transform="translate(33,14)" d="m0 0h716l198 1 1 14-2 28-6 24-11 26-8 13-11 15-18 20-14 11-11 8-16 9-10 5-30 10-18 4-19 2h-165l-24 48-9 19-5 8-7 16-10 19-5 12-16 30-9 18 17-1 41-3 33-2 30-3 36-3 49-3 10-1-1 4-8 9-8 11-12 16-13 17-20 26-12 16-10 13-7 9-10 14-8 11-12 16-12 15-8 11-16 21-7 9-21 28-9 13-9 11-21 28-11 14-10 13-8 11-6 7-7 10-12 15-21 27-11 13-10 13-9 10-9 12-9 10-11 14-11 12-8 10-10 11-9 11-14 16-9 11h-5l1-8 7-30 10-42 7-30 9-38 9-36 7-29 9-39 8-34 9-37 3-12v-3l-42 3-37 2-99 7h-6l2-6 12-23 15-28 15-30 10-19 29-58 20-39 25-50 11-21 8-16 10-19 39-78 15-29 9-19 10-19 23-46-97-1h-271l-7-1 13 24 9 12 13 14 15 11 18 10 17 6 13 3 23 2 145 1-1 4-9 16-8 14-8 17-2 2h-121l-21-2-15-3-17-5-21-8-20-11-14-10-13-11-13-13-13-17-7-11-8-15-7-19-4-16-2-11-1-16v-16l1-5z" fill="#030909"/>
<path transform="translate(525,67)" d="m0 0 28 1 334 1-2 6-10 18-8 11-14 15-17 12-14 8-16 6-19 4-9 1-20 1-181 1-6 10-6 14-10 19-9 20-12 23-13 28-7 14-11 23-16 32-16 33-9 17-11 23-10 19-1 3 2-1 52-4 20-1 21-2 77-5 19-1-4 7-18 24-10 14-10 13-13 17-6 8-8 11-9 12-20 26-12 16-14 19-10 13-6 9-10 12-10 14-10 12-8 11-10 13-8 11-9 11-7 11-4 2 3-12 7-32 12-45 7-30 14-55 6-26-1-2-13 2-38 3-36 2-53 5-26 1 2-5 6-10 16-32 12-23 9-19 10-19 6-12 10-19 41-82 11-20 11-23 12-23 8-15 11-23 10-19 14-28 9-17 8-16 14-29z" fill="#FEFFFE"/>
</svg>
